<svg width="20" height="20" viewBox="0 0 20 20" fill="none" xmlns="http://www.w3.org/2000/svg">
<path d="M0.832031 3.32812V8.32812H5.83203" stroke="#918D99" stroke-linecap="round" stroke-linejoin="round"/>
<path d="M19.168 16.6719V11.6719H14.168" stroke="#918D99" stroke-linecap="round" stroke-linejoin="round"/>
<path d="M17.0737 7.49803C16.6511 6.30368 15.9328 5.23586 14.9858 4.39421C14.0389 3.55256 12.8941 2.9645 11.6585 2.68491C10.4228 2.40532 9.1364 2.44331 7.91937 2.79534C6.70234 3.14737 5.59432 3.80196 4.6987 4.69803L0.832031 8.33136M19.1654 11.6647L15.2987 15.298C14.4031 16.1941 13.2951 16.8487 12.078 17.2007C10.861 17.5527 9.57462 17.5907 8.33894 17.3111C7.10325 17.0316 5.95853 16.4435 5.01159 15.6018C4.06464 14.7602 3.34634 13.6924 2.9237 12.498" stroke="#918D99" stroke-linecap="round" stroke-linejoin="round"/>
</svg>
